<svg width="54" height="52" xmlns="http://www.w3.org/2000/svg">

 <g>
  <title>background</title>
  <rect fill="none" id="canvas_background" height="54" width="56" y="-1" x="-1"/>
 </g>
 <g>
  <title>Layer 1</title>
  <g id="svg_1">
   <g id="svg_2">
    <path id="svg_3" d="m22.863,22.365c-1.331,0 -2.529,-0.737 -3.127,-1.925c-0.867,-1.724 -0.173,-3.831 1.551,-4.7c0.487,-0.244 1.031,-0.374 1.571,-0.374c1.331,0 2.529,0.738 3.129,1.923c0.869,1.725 0.173,3.834 -1.55,4.7c-0.486,0.247 -1.033,0.376 -1.574,0.376m-4.107,7.153c-0.068,0 -0.134,-0.002 -0.203,-0.004c-1.923,-0.112 -3.403,-1.769 -3.293,-3.694c0.108,-1.919 1.753,-3.41 3.691,-3.294c1.927,0.106 3.404,1.765 3.296,3.691c-0.104,1.852 -1.64,3.301 -3.491,3.301m4.134,7.132c-0.681,0 -1.345,-0.197 -1.916,-0.572c-0.781,-0.512 -1.316,-1.298 -1.506,-2.214c-0.191,-0.915 -0.015,-1.85 0.499,-2.631c0.649,-0.988 1.744,-1.582 2.93,-1.582c0.68,0 1.345,0.2 1.914,0.574c0.784,0.513 1.319,1.297 1.508,2.215c0.192,0.914 0.015,1.848 -0.499,2.63c-0.649,0.991 -1.743,1.58 -2.93,1.58m8.253,-0.017c-1.329,0 -2.526,-0.738 -3.127,-1.926c-0.42,-0.833 -0.488,-1.78 -0.197,-2.668c0.292,-0.89 0.915,-1.607 1.748,-2.029c0.486,-0.247 1.032,-0.377 1.574,-0.377c1.33,0 2.527,0.738 3.127,1.927c0.867,1.723 0.17,3.83 -1.552,4.7c-0.484,0.243 -1.029,0.373 -1.573,0.373m4.111,-7.152c-0.069,0 -0.135,-0.004 -0.201,-0.006c-1.929,-0.108 -3.406,-1.767 -3.297,-3.691c0.109,-1.92 1.755,-3.409 3.693,-3.296c0.935,0.053 1.789,0.464 2.413,1.163c0.623,0.696 0.934,1.597 0.88,2.529c-0.103,1.851 -1.638,3.301 -3.488,3.301m-4.148,-7.133c-0.68,0 -1.341,-0.197 -1.914,-0.572c-1.616,-1.062 -2.065,-3.233 -1.009,-4.848c0.649,-0.987 1.745,-1.578 2.929,-1.578c0.684,0 1.345,0.198 1.917,0.571c1.613,1.058 2.065,3.231 1.008,4.846c-0.649,0.988 -1.743,1.581 -2.931,1.581m-11.744,-12.992c0.434,0.862 0.086,1.915 -0.773,2.35c-0.863,0.434 -1.914,0.086 -2.349,-0.773c-0.436,-0.863 -0.089,-1.914 0.772,-2.35c0.863,-0.433 1.915,-0.088 2.35,0.773m-10.593,14.937c0.965,0.056 1.702,0.882 1.647,1.846c-0.056,0.966 -0.882,1.703 -1.846,1.646c-0.963,-0.055 -1.701,-0.88 -1.646,-1.847c0.055,-0.96 0.882,-1.698 1.845,-1.645m7.641,16.644c0.529,-0.808 1.611,-1.032 2.419,-0.503c0.809,0.528 1.034,1.612 0.503,2.421c-0.528,0.807 -1.613,1.031 -2.422,0.504c-0.806,-0.534 -1.029,-1.614 -0.5,-2.422m18.233,1.703c-0.437,-0.861 -0.088,-1.911 0.772,-2.345c0.865,-0.436 1.915,-0.088 2.348,0.771c0.436,0.862 0.087,1.916 -0.773,2.348c-0.861,0.437 -1.913,0.091 -2.347,-0.774m10.59,-14.936c-0.967,-0.054 -1.702,-0.881 -1.646,-1.843c0.054,-0.967 0.88,-1.703 1.845,-1.646c0.964,0.053 1.701,0.88 1.647,1.846c-0.053,0.961 -0.884,1.698 -1.846,1.643m-7.638,-16.642c-0.529,0.808 -1.613,1.032 -2.42,0.504c-0.808,-0.528 -1.034,-1.614 -0.504,-2.421c0.529,-0.81 1.613,-1.032 2.42,-0.504c0.806,0.531 1.034,1.614 0.504,2.421m-22.057,-7.067c0.282,0.558 0.055,1.238 -0.501,1.52c-0.559,0.281 -1.237,0.057 -1.521,-0.502c-0.28,-0.557 -0.056,-1.239 0.501,-1.518c0.56,-0.282 1.239,-0.057 1.521,0.5m-13.326,20.931c0.626,0.035 1.101,0.568 1.067,1.192c-0.037,0.623 -0.572,1.102 -1.194,1.063c-0.625,-0.032 -1.102,-0.569 -1.065,-1.192c0.037,-0.622 0.569,-1.099 1.192,-1.063m11.464,22.003c0.342,-0.523 1.046,-0.671 1.569,-0.325c0.521,0.343 0.666,1.042 0.321,1.567c-0.339,0.521 -1.042,0.669 -1.565,0.325c-0.522,-0.344 -0.665,-1.045 -0.325,-1.567m24.79,1.077c-0.281,-0.561 -0.058,-1.241 0.502,-1.521c0.558,-0.281 1.237,-0.058 1.516,0.5c0.285,0.559 0.058,1.239 -0.498,1.519c-0.558,0.282 -1.24,0.058 -1.52,-0.498m13.323,-20.931c-0.623,-0.035 -1.102,-0.57 -1.065,-1.195c0.038,-0.624 0.569,-1.101 1.195,-1.063c0.623,0.033 1.1,0.57 1.062,1.192c-0.035,0.623 -0.568,1.099 -1.192,1.066m-11.461,-22.007c-0.345,0.523 -1.046,0.67 -1.567,0.327c-0.522,-0.344 -0.668,-1.044 -0.327,-1.567c0.342,-0.521 1.044,-0.668 1.566,-0.324c0.521,0.342 0.669,1.043 0.328,1.564m-24.447,12.176c0.949,0.622 1.214,1.897 0.59,2.846c-0.621,0.951 -1.896,1.217 -2.848,0.593c-0.949,-0.623 -1.215,-1.896 -0.59,-2.847c0.622,-0.948 1.898,-1.215 2.848,-0.592m-2.026,14.01c1.016,-0.512 2.253,-0.104 2.766,0.911c0.509,1.015 0.104,2.252 -0.913,2.763c-1.013,0.511 -2.252,0.101 -2.762,-0.912c-0.509,-1.014 -0.103,-2.252 0.909,-2.762m10.975,8.756c0.065,-1.135 1.038,-2 2.171,-1.938c1.137,0.063 2.004,1.039 1.938,2.17c-0.063,1.136 -1.035,2.003 -2.171,1.937c-1.134,-0.064 -2.002,-1.036 -1.938,-2.169m13.295,-5.252c-0.95,-0.626 -1.218,-1.9 -0.596,-2.851c0.625,-0.947 1.9,-1.213 2.849,-0.591c0.95,0.622 1.216,1.897 0.594,2.847c-0.623,0.952 -1.901,1.216 -2.847,0.595m2.02,-14.012c-1.014,0.511 -2.251,0.104 -2.761,-0.911c-0.51,-1.014 -0.105,-2.25 0.91,-2.763c1.017,-0.511 2.251,-0.103 2.766,0.912c0.507,1.014 0.101,2.25 -0.915,2.762m-11.119,-8.757c-0.063,1.134 -1.038,2.002 -2.174,1.937c-1.134,-0.064 -2.001,-1.036 -1.937,-2.17s1.037,-2.002 2.171,-1.938c1.136,0.065 2.002,1.036 1.94,2.171m-20.805,1.566c0.665,0.435 0.85,1.328 0.414,1.993c-0.435,0.663 -1.328,0.852 -1.992,0.414c-0.665,-0.437 -0.852,-1.331 -0.415,-1.993c0.437,-0.664 1.327,-0.853 1.993,-0.414m-1.388,22.486c0.711,-0.357 1.576,-0.072 1.935,0.638c0.357,0.709 0.071,1.576 -0.638,1.935c-0.711,0.355 -1.577,0.071 -1.935,-0.638s-0.072,-1.578 0.638,-1.935m18.633,12.446c0.045,-0.796 0.726,-1.401 1.52,-1.356s1.399,0.726 1.355,1.519c-0.043,0.795 -0.727,1.402 -1.52,1.358c-0.796,-0.046 -1.401,-0.727 -1.355,-1.521m20.315,-10.044c-0.664,-0.433 -0.851,-1.328 -0.415,-1.993c0.438,-0.663 1.331,-0.851 1.996,-0.413c0.664,0.437 0.847,1.329 0.415,1.992c-0.438,0.665 -1.331,0.852 -1.996,0.414m1.388,-22.483c-0.707,0.355 -1.575,0.069 -1.934,-0.641c-0.357,-0.71 -0.072,-1.573 0.639,-1.933c0.71,-0.357 1.574,-0.074 1.933,0.637c0.356,0.711 0.072,1.578 -0.638,1.937m-18.78,-12.448c-0.043,0.795 -0.725,1.401 -1.519,1.356c-0.793,-0.045 -1.401,-0.726 -1.356,-1.519c0.046,-0.796 0.726,-1.402 1.52,-1.357c0.795,0.044 1.401,0.727 1.355,1.52" fill="#FFFFFF"/>
   </g>
  </g>
  <line stroke="#ffffff" stroke-linecap="undefined" stroke-linejoin="undefined" id="svg_4" y2="26.215053" x2="35.279551" y1="18.903243" x1="31.19354" stroke-width="0.8" fill="none"/>
  <line stroke="#ffffff" stroke-linecap="undefined" stroke-linejoin="undefined" id="svg_5" y2="26.215054" x2="35.279551" y1="33.311811" x1="30.978486" stroke-width="0.8" fill="none"/>
  <line stroke="#ffffff" stroke-linecap="undefined" stroke-linejoin="undefined" id="svg_6" y2="33.526863" x2="23.451627" y1="33.311809" x1="30.978488" stroke-width="0.8" fill="none"/>
  <line stroke="#ffffff" stroke-linecap="undefined" stroke-linejoin="undefined" id="svg_7" y2="33.526874" x2="23.451628" y1="25.999998" x1="18.290349" stroke-width="0.8" fill="none"/>
  <line stroke="#ffffff" stroke-linecap="undefined" stroke-linejoin="undefined" id="svg_8" y2="18.258096" x2="23.451628" y1="25.999998" x1="18.290349" stroke-width="0.8" fill="none"/>
  <line stroke="#ffffff" stroke-linecap="undefined" stroke-linejoin="undefined" id="svg_9" y2="18.258096" x2="23.451628" y1="25.999998" x1="18.290349" stroke-width="0.8" fill="none"/>
  <line stroke="#ffffff" stroke-linecap="undefined" stroke-linejoin="undefined" id="svg_10" y2="18.258095" x2="23.451627" y1="18.473135" x1="31.623648" stroke-width="0.8" fill="none"/>
  <line stroke="#ffffff" stroke-linecap="undefined" stroke-linejoin="undefined" id="svg_12" y2="48.580597" x2="26.462374" y1="42.12899" x1="17.860242" stroke-width="0.5" fill="none"/>
  <line stroke="#ffffff" stroke-linecap="undefined" stroke-linejoin="undefined" id="svg_13" y2="48.580597" x2="26.462374" y1="41.48383" x1="37.215034" stroke-width="0.5" fill="none"/>
  <line stroke="#ffffff" stroke-linecap="undefined" stroke-linejoin="undefined" id="svg_14" y2="10.516177" x2="17.430138" y1="2.989305" x1="27.322584" stroke-width="0.5" fill="none"/>
  <line stroke="#ffffff" stroke-linecap="undefined" stroke-linejoin="undefined" id="svg_15" y2="10.516177" x2="17.430138" y1="2.989305" x1="27.322584" stroke-width="0.5" fill="none"/>
  <line stroke="#ffffff" stroke-linecap="undefined" stroke-linejoin="undefined" id="svg_16" y2="10.516177" x2="36.139769" y1="2.989305" x1="27.322585" stroke-width="0.5" fill="none"/>
  <line stroke="#ffffff" stroke-linecap="undefined" stroke-linejoin="undefined" id="svg_17" y2="10.301124" x2="18.075302" y1="14.387127" x1="7.752741" stroke-width="0.5" fill="none"/>
  <line stroke="#ffffff" stroke-linecap="undefined" stroke-linejoin="undefined" id="svg_18" y2="26.000011" x2="8.397906" y1="13.957022" x1="7.322635" stroke-width="0.5" fill="none"/>
  <line stroke="#ffffff" stroke-linecap="undefined" stroke-linejoin="undefined" id="svg_19" y2="26.000014" x2="8.612969" y1="37.827931" x1="7.537688" stroke-width="0.5" fill="none"/>
  <line stroke="#ffffff" stroke-linecap="undefined" stroke-linejoin="undefined" id="svg_20" y2="42.129006" x2="17.430154" y1="37.82793" x1="7.537686" stroke-width="0.5" fill="none"/>
  <line stroke="#ffffff" stroke-linecap="undefined" stroke-linejoin="undefined" id="svg_21" y2="37.827939" x2="46.032227" y1="41.698887" x1="36.56988" stroke-width="0.5" fill="none"/>
  <line stroke="#ffffff" stroke-linecap="undefined" stroke-linejoin="undefined" id="svg_22" y2="37.827934" x2="46.032227" y1="25.569893" x1="45.602117" stroke-width="0.5" fill="none"/>
  <line stroke="#ffffff" stroke-linecap="undefined" stroke-linejoin="undefined" id="svg_23" y2="14.602185" x2="46.24728" y1="25.569892" x1="45.602118" stroke-width="0.5" fill="none"/>
  <line stroke="#ffffff" stroke-linecap="undefined" stroke-linejoin="undefined" id="svg_24" y2="14.602185" x2="46.247275" y1="9.871007" x1="35.924698" stroke-width="0.5" fill="none"/>
  <line stroke="#ffffff" stroke-linecap="undefined" stroke-linejoin="undefined" id="svg_25" y2="18.473143" x2="38.720418" y1="25.784946" x1="51.838678" stroke-width="0.5" fill="none"/>
  <line stroke="#ffffff" stroke-linecap="undefined" stroke-linejoin="undefined" id="svg_26" y2="33.741922" x2="38.505365" y1="25.784947" x1="51.838678" stroke-width="0.5" fill="none"/>
  <line stroke="#ffffff" stroke-linecap="undefined" stroke-linejoin="undefined" id="svg_27" y2="33.741922" x2="38.505365" y1="25.784947" x1="51.838678" stroke-width="0.5" fill="none"/>
  <line stroke="#ffffff" stroke-linecap="undefined" stroke-linejoin="undefined" id="svg_29" y2="32.666651" x2="39.58063" y1="47.720376" x1="39.365589" stroke-width="0.5" fill="none"/>
  <line stroke="#ffffff" stroke-linecap="undefined" stroke-linejoin="undefined" id="svg_31" y2="39.763409" x2="26.462483" y1="47.720376" x1="39.365589" stroke-width="0.5" fill="none"/>
  <line stroke="#ffffff" stroke-linecap="undefined" stroke-linejoin="undefined" id="svg_32" y2="39.978462" x2="26.677534" y1="47.720376" x1="14.849521" stroke-width="0.5" fill="none"/>
  <line stroke="#ffffff" stroke-linecap="undefined" stroke-linejoin="undefined" id="svg_33" y2="32.666652" x2="14.634555" y1="47.720376" x1="14.849522" stroke-width="0.5" fill="none"/>
  <line stroke="#ffffff" stroke-linecap="undefined" stroke-linejoin="undefined" id="svg_34" y2="32.666652" x2="14.634555" y1="47.720376" x1="14.849522" stroke-width="0.5" fill="none"/>
  <line stroke="#ffffff" stroke-linecap="undefined" stroke-linejoin="undefined" id="svg_35" y2="26.215056" x2="2.161461" y1="32.666648" x1="13.989309" stroke-width="0.5" fill="none"/>
  <line stroke="#ffffff" stroke-linecap="undefined" stroke-linejoin="undefined" id="svg_36" y2="26.215055" x2="2.161461" y1="18.258083" x1="15.064576" stroke-width="0.5" fill="none"/>
  <line stroke="#ffffff" stroke-linecap="undefined" stroke-linejoin="undefined" id="svg_37" y2="26.215055" x2="2.161461" y1="18.258083" x1="15.064576" stroke-width="0.5" fill="none"/>
  <line stroke="#ffffff" stroke-linecap="undefined" stroke-linejoin="undefined" id="svg_38" y2="3.419414" x2="14.634548" y1="18.688189" x1="14.634469" stroke-width="0.5" fill="none"/>
  <line stroke="#ffffff" stroke-linecap="undefined" stroke-linejoin="undefined" id="svg_39" y2="3.63447" x2="14.204352" y1="11.591434" x1="26.247345" stroke-width="0.5" fill="none"/>
  <line stroke="#ffffff" stroke-linecap="undefined" stroke-linejoin="undefined" id="svg_40" y2="4.709737" x2="38.935474" y1="12.236594" x1="26.677452" stroke-width="0.5" fill="none"/>
  <line stroke="#ffffff" stroke-linecap="undefined" stroke-linejoin="undefined" id="svg_41" y2="4.064578" x2="39.365566" y1="19.548403" x1="39.61378" stroke-width="0.5" fill="none"/>
 </g>
</svg>